<svg width="15" height="15" viewBox="0 0 15 15" fill="none" xmlns="http://www.w3.org/2000/svg">
<path d="M7.06125 10.75H8.03625V6.85003H7.06125V10.75ZM7.49971 5.6475C7.65157 5.6475 7.77896 5.59773 7.88188 5.49802C7.98479 5.39831 8.03625 5.27488 8.03625 5.12756C8.03625 4.97099 7.98489 4.83976 7.88217 4.73388C7.77943 4.62791 7.65214 4.57501 7.50029 4.57501C7.34843 4.57501 7.22104 4.62791 7.11812 4.73388C7.01521 4.83976 6.96375 4.97099 6.96375 5.12756C6.96375 5.27488 7.01511 5.39831 7.11783 5.49802C7.22057 5.59773 7.34786 5.6475 7.49971 5.6475ZM7.50432 14C6.60804 14 5.76574 13.8294 4.97745 13.4881C4.18915 13.1469 3.49979 12.6811 2.90938 12.0906C2.31896 11.5002 1.85313 10.8105 1.51188 10.0213C1.17063 9.23225 1 8.38907 1 7.49189C1 6.59467 1.17063 5.75153 1.51188 4.96244C1.85313 4.1733 2.31896 3.48625 2.90938 2.90126C3.49979 2.31626 4.18955 1.85314 4.97867 1.51191C5.76777 1.17064 6.61092 1 7.50812 1C8.40534 1 9.24848 1.17064 10.0376 1.51191C10.8267 1.85314 11.5138 2.31626 12.0988 2.90126C12.6837 3.48625 13.1469 4.17422 13.4881 4.96504C13.8294 5.75585 14 6.59938 14 7.49572C14 8.39198 13.8294 9.23428 13.4881 10.0226C13.1469 10.8109 12.6837 11.4992 12.0988 12.0876C11.5138 12.6761 10.8258 13.1419 10.035 13.4852C9.24417 13.8283 8.40061 14 7.50432 14ZM7.50812 13.025C9.04104 13.025 10.3438 12.4861 11.4163 11.4081C12.4887 10.3302 13.025 9.0248 13.025 7.49189C13.025 5.95897 12.4898 4.65629 11.4193 3.58376C10.3488 2.51127 9.0424 1.97503 7.5 1.97503C5.9725 1.97503 4.6698 2.51026 3.59188 3.58076C2.51396 4.65122 1.975 5.95765 1.975 7.50004C1.975 9.02754 2.51396 10.3302 3.59188 11.4081C4.6698 12.4861 5.97522 13.025 7.50812 13.025Z" fill="#484848" stroke="#484848" stroke-width="0.2"/>
</svg>
