<svg width="16" height="16" viewBox="0 0 16 16" fill="none" xmlns="http://www.w3.org/2000/svg">
<path d="M8 1.76779C9.13858 1.76779 10.1773 2.04744 11.1161 2.60674C12.0549 3.14607 12.814 3.90512 13.3933 4.88389C13.9526 5.86267 14.2322 6.90137 14.2322 8C14.2322 9.09862 13.9526 10.1373 13.3933 11.1161C12.814 12.0949 12.0549 12.8539 11.1161 13.3933C10.1773 13.9526 9.13858 14.2322 8 14.2322C6.86142 14.2322 5.82272 13.9526 4.8839 13.3933C3.94507 12.8539 3.18602 12.0949 2.60674 11.1161C2.04744 10.1373 1.76779 9.09862 1.76779 8C1.76779 6.90137 2.04744 5.86267 2.60674 4.88389C3.18602 3.90512 3.94507 3.14607 4.8839 2.60674C5.82272 2.04744 6.86142 1.76779 8 1.76779ZM8 15.6704C9.39825 15.6504 10.6767 15.3109 11.8352 14.6517C12.9938 13.9725 13.9326 13.0337 14.6517 11.8352C15.3308 10.6167 15.6704 9.33833 15.6704 8C15.6704 6.66167 15.3308 5.38327 14.6517 4.16479C13.9326 2.96629 12.9938 2.02746 11.8352 1.34831C10.6767 0.689137 9.39825 0.349561 8 0.329586C6.60175 0.349561 5.32335 0.689137 4.1648 1.34831C3.00624 2.02746 2.06742 2.96629 1.34832 4.16479C0.669165 5.38327 0.32959 6.66167 0.32959 8C0.32959 9.33833 0.669165 10.6167 1.34832 11.8352C2.06742 13.0337 3.00624 13.9725 4.1648 14.6517C5.32335 15.3109 6.60175 15.6504 8 15.6704ZM6.8015 10.397H6.0824V11.8352H6.8015H9.9176V10.397H9.1985H8.9588V7.7603V7.0412H8.2397H6.0824V8.4794H6.8015H7.5206V10.397H6.8015ZM8.9588 6.0824V4.16479H7.0412V6.0824H8.9588Z" fill="black"/>
</svg>
