<?xml version="1.0" standalone="no"?>
<!DOCTYPE svg PUBLIC "-//W3C//DTD SVG 20010904//EN"
 "http://www.w3.org/TR/2001/REC-SVG-20010904/DTD/svg10.dtd">
<svg version="1.0" xmlns="http://www.w3.org/2000/svg"
 width="300.000000pt" height="300.000000pt" viewBox="0 0 300.000000 300.000000"
 preserveAspectRatio="xMidYMid meet">
<metadata>
Created by potrace 1.10, written by Peter Selinger 2001-2011
</metadata>
<g transform="translate(0.000000,300.000000) scale(0.100000,-0.100000)"
fill="#000000" stroke="none">
<path d="M1315 2365 c-339 -74 -609 -346 -680 -686 -19 -90 -19 -268 0 -358
72 -343 342 -614 685 -687 84 -18 276 -18 360 0 344 73 621 353 686 694 18 94
18 250 0 344 -65 342 -341 621 -686 694 -81 17 -285 17 -365 -1z m353 -51
c300 -61 548 -291 633 -586 30 -105 37 -279 15 -389 -121 -593 -807 -865
-1301 -514 -275 195 -404 549 -321 877 82 323 346 566 676 621 63 11 227 6
298 -9z"/>
<path d="M930 1495 l0 -145 106 0 105 0 -3 28 c-3 26 -4 27 -72 27 l-68 1 1
117 2 117 -35 0 -36 0 0 -145z"/>
<path d="M1225 1626 c-54 -24 -78 -60 -83 -125 -4 -53 -2 -61 27 -93 40 -46
80 -62 137 -55 85 9 139 74 131 156 -11 100 -117 159 -212 117z m104 -51 c78
-40 56 -158 -31 -172 -32 -5 -41 -1 -68 25 -48 48 -36 128 24 152 31 13 44 12
75 -5z"/>
<path d="M1550 1622 c-55 -27 -83 -77 -78 -140 9 -106 116 -162 223 -118 34
15 35 16 35 75 l0 61 -31 0 c-31 0 -32 0 -27 -44 5 -39 3 -45 -16 -50 -38 -10
-63 -6 -89 14 -54 43 -41 134 23 160 26 11 37 10 73 -4 39 -15 42 -15 61 3 18
19 18 20 -22 40 -50 26 -105 27 -152 3z"/>
<path d="M1855 1626 c-16 -7 -41 -26 -55 -41 -21 -22 -25 -36 -25 -90 0 -54 4
-67 25 -90 99 -106 270 -48 270 91 0 104 -116 174 -215 130z m104 -51 c57 -29
65 -115 14 -155 -79 -62 -185 45 -127 128 28 40 69 50 113 27z"/>
</g>
</svg>
